<svg xmlns="http://www.w3.org/2000/svg" width="1600" height="1000" viewBox="0 0 1600 1000"><defs><linearGradient id="b" x1="0" y1="0" x2="1" y2="1"><stop stop-color="#e9fbff"/><stop offset=".55" stop-color="#72d8fa"/><stop offset="1" stop-color="#287bb8"/></linearGradient><pattern id="f" width="24" height="24" patternUnits="userSpaceOnUse"><path d="M24 0H0V24" fill="none" stroke="#0c5e91" stroke-opacity=".2"/></pattern></defs><rect width="1600" height="1000" fill="url(#b)"/><rect width="1600" height="1000" fill="url(#f)"/><g fill="none" stroke="#fff" stroke-width="3" stroke-opacity=".58"><path d="M95 210h210l105 182-105 182H95L-10 392z"/><path d="M520 70h210l105 182-105 182H520L415 252z"/><path d="M950 370h210l105 182-105 182H950L845 552z"/><path d="M1320 90h210l105 182-105 182h-210l-105-182z"/></g><g stroke="#0c5e91" stroke-width="2" stroke-opacity=".45"><path d="M0 760h1600M0 790h1600M0 820h1600"/></g></svg>